<?xml version="1.0" encoding="UTF-8"?>
<svg width="32px" height="32px" viewBox="0 0 32 32" version="1.1" xmlns="http://www.w3.org/2000/svg" xmlns:xlink="http://www.w3.org/1999/xlink">
    <title>切片</title>
    <defs>
        <linearGradient x1="50%" y1="0%" x2="50%" y2="100%" id="linearGradient-1">
            <stop stop-color="#2D77F3" offset="0%"></stop>
            <stop stop-color="#035CF2" offset="100%"></stop>
        </linearGradient>
    </defs>
    <g id="页面1" stroke="none" stroke-width="1" fill="none" fill-rule="evenodd">
        <g id="首页-智能搜索和智能机器人对话框备份-5" transform="translate(-1846.000000, -1012.000000)" fill="url(#linearGradient-1)" fill-rule="nonzero">
            <g id="编组-2" transform="translate(1464.000000, 92.000000)">
                <g id="输入框，位于对话框最顶层" transform="translate(0.000000, 848.000000)">
                    <g id="icon-send-1" transform="translate(382.000000, 72.000000)">
                        <g id="发送-(1)" transform="translate(1.000000, 3.000000)">
                            <path d="M10.442625,15.27925 L19.986625,7.30524998 L7.36862498,12.92925 L0.430625016,7.62525 C0.119393237,7.38747269 -0.024375238,6.98988872 0.06279859,6.60804583 C0.149972418,6.22620295 0.452039015,5.93040207 0.835625016,5.85125002 L28.953625,0.0552500156 C29.2883199,-0.0134789261 29.6349394,0.0934351064 29.8727659,0.338757045 C30.1105925,0.584078983 30.206703,0.933848125 30.127625,1.26624998 L24.617625,24.34625 C24.5392143,24.6756598 24.2994304,24.9430126 23.9804618,25.0566704 C23.6614932,25.1703282 23.306675,25.1146955 23.037625,24.90925 L10.442625,15.27925 L10.442625,15.27925 Z M7.82262502,23.24925 L9.197625,16.81325 L14.587625,20.97425 L9.33462502,24.30225 C8.99447651,24.5177237 8.55827526,24.5081708 8.2278862,24.2780122 C7.89749715,24.0478535 7.73737658,23.6419912 7.82162498,23.24825 L7.82262502,23.24925 Z" id="形状"></path>
                        </g>
                    </g>
                </g>
            </g>
        </g>
    </g>
</svg>